<svg xmlns="http://www.w3.org/2000/svg" viewBox="0 0 120 120" width="120" height="120">
  <style>
    .ai-doctor-icon {
      fill: #1976d2;
    }
    .ai-doctor-accent {
      fill: #5e72e4;
    }
    .ai-doctor-detail {
      fill: #60a5fa;
    }
    .ai-doctor-white {
      fill: #ffffff;
    }
    .ai-doctor-light {
      fill: #e3f2fd;
    }
    .ai-doctor-tech {
      fill: #38bdf8;
    }
    @keyframes pulse {
      0% { opacity: 0.5; }
      50% { opacity: 1; }
      100% { opacity: 0.5; }
    }
    .pulse {
      animation: pulse 2s infinite ease-in-out;
    }
    @keyframes float {
      0% { transform: translateY(0px); }
      50% { transform: translateY(-5px); }
      100% { transform: translateY(0px); }
    }
    .float {
      animation: float 3s infinite ease-in-out;
    }
  </style>
  
  <!-- Background elements -->
  <circle cx="60" cy="60" r="55" class="ai-doctor-light" />
  
  <!-- AI Technology Circuits -->
  <g class="pulse">
    <path class="ai-doctor-tech" d="M16,60 C16,35.699 35.699,16 60,16 L60,16 C84.301,16 104,35.699 104,60 L104,60" fill="none" stroke="#38bdf8" stroke-width="1" stroke-dasharray="4,3" />
    <circle cx="20" cy="60" r="2" class="ai-doctor-tech" />
    <circle cx="100" cy="60" r="2" class="ai-doctor-tech" />
    <circle cx="60" cy="20" r="2" class="ai-doctor-tech" />
    <circle cx="60" cy="100" r="2" class="ai-doctor-tech" />
  </g>
  
  <!-- Doctor Icon Base -->
  <g class="float" transform="translate(35, 30)">
    <!-- Doctor Head -->
    <circle cx="25" cy="20" r="18" class="ai-doctor-icon" />
    <path class="ai-doctor-white" d="M25,38 C19,38 14,35.5 11,31.5 C12.5,39 18,44 25,44 C32,44 37.5,39 39,31.5 C36,35.5 31,38 25,38 Z" />
    
    <!-- Stethoscope -->
    <path class="ai-doctor-accent" d="M15,40 C12,42 10,45 10,45 C10,45 12,48 15,50 C18,52 20,54 25,54 C30,54 32,52 35,50 C38,48 40,45 40,45 C40,45 38,42 35,40" fill="none" stroke="#5e72e4" stroke-width="2" stroke-linecap="round" />
    <circle cx="40" cy="45" r="3" class="ai-doctor-accent" />
    
    <!-- AI Elements -->
    <rect x="10" y="15" width="30" height="4" rx="2" class="ai-doctor-detail" />
    <rect x="15" y="22" width="20" height="2" rx="1" class="ai-doctor-detail" />
    <rect x="20" y="27" width="10" height="2" rx="1" class="ai-doctor-detail" />
    
    <!-- Digital Elements -->
    <path class="ai-doctor-tech" d="M43,20 L47,20 M45,18 L45,22 M5,20 L3,20 M0,20 L2,20" stroke="#38bdf8" stroke-width="1.5" stroke-linecap="round" />
    <path class="ai-doctor-tech" d="M40,10 L38,12 M38,8 L40,10" stroke="#38bdf8" stroke-width="1.5" stroke-linecap="round" />
    <path class="ai-doctor-tech" d="M12,10 L10,8 M10,12 L12,10" stroke="#38bdf8" stroke-width="1.5" stroke-linecap="round" />
  </g>
  
  <!-- Heartbeat Line -->
  <path class="ai-doctor-accent" d="M30,90 L40,90 L45,80 L50,100 L55,85 L60,90 L70,90" fill="none" stroke="#5e72e4" stroke-width="2" stroke-linecap="round" />
  
  <!-- Medical Cross -->
  <g transform="translate(88, 30)">
    <rect x="0" y="4" width="12" height="4" rx="1" class="ai-doctor-accent" />
    <rect x="4" y="0" width="4" height="12" rx="1" class="ai-doctor-accent" />
  </g>
</svg> 