<svg xmlns="http://www.w3.org/2000/svg" viewBox="0 0 200 60" width="200" height="60">
  <style>
    .logo-text { font-family: 'Arial', sans-serif; font-weight: bold; }
    .logo-icon { fill: #0077cc; }
    .logo-accent { fill: #5e72e4; }
    .logo-text-main { fill: #0077cc; }
    .logo-text-secondary { fill: #333; }
    @keyframes pulse {
      0% { transform: scale(1); opacity: 0.8; }
      50% { transform: scale(1.05); opacity: 1; }
      100% { transform: scale(1); opacity: 0.8; }
    }
    .pulse { animation: pulse 2s infinite ease-in-out; }
  </style>
  
  <!-- Logo Icon -->
  <g class="pulse" transform="translate(10, 10)">
    <path class="logo-icon" d="M20,0 C31.046,0 40,8.954 40,20 C40,31.046 31.046,40 20,40 C8.954,40 0,31.046 0,20 C0,8.954 8.954,0 20,0 Z M20,5 C11.716,5 5,11.716 5,20 C5,28.284 11.716,35 20,35 C28.284,35 35,28.284 35,20 C35,11.716 28.284,5 20,5 Z" />
    <path class="logo-accent" d="M20,10 C25.523,10 30,14.477 30,20 C30,25.523 25.523,30 20,30 C14.477,30 10,25.523 10,20 C10,14.477 14.477,10 20,10 Z" />
    <path fill="#ffffff" d="M17,15 L23,15 L23,18 L20,18 L20,25 L17,25 Z" />
  </g>
  
  <!-- Logo Text -->
  <g transform="translate(60, 30)">
    <text class="logo-text logo-text-main" font-size="24" x="0" y="0">动维康</text>
    <text class="logo-text logo-text-secondary" font-size="10" x="0" y="15">DONGWEIKANG</text>
  </g>
  
  <!-- Decorative Elements -->
  <path class="logo-accent" d="M50,15 C50.552,15 51,15.448 51,16 L51,44 C51,44.552 50.552,45 50,45 C49.448,45 49,44.552 49,44 L49,16 C49,15.448 49.448,15 50,15 Z" opacity="0.6" />
</svg> 