<?xml version="1.0" encoding="UTF-8"?>
<svg xmlns="http://www.w3.org/2000/svg" width="100" height="100" viewBox="0 0 100 100">
  <rect fill="white" width="100" height="100"/>
  <g fill="#0077cc">
    <!-- 外边框 -->
    <rect x="10" y="10" width="10" height="10"/>
    <rect x="20" y="10" width="10" height="10"/>
    <rect x="30" y="10" width="10" height="10"/>
    <rect x="40" y="10" width="10" height="10"/>
    <rect x="50" y="10" width="10" height="10"/>
    <rect x="60" y="10" width="10" height="10"/>
    <rect x="70" y="10" width="10" height="10"/>
    <rect x="80" y="10" width="10" height="10"/>
    
    <rect x="10" y="20" width="10" height="10"/>
    <rect x="80" y="20" width="10" height="10"/>
    
    <rect x="10" y="30" width="10" height="10"/>
    <rect x="30" y="30" width="10" height="10"/>
    <rect x="40" y="30" width="10" height="10"/>
    <rect x="50" y="30" width="10" height="10"/>
    <rect x="60" y="30" width="10" height="10"/>
    <rect x="80" y="30" width="10" height="10"/>
    
    <rect x="10" y="40" width="10" height="10"/>
    <rect x="30" y="40" width="10" height="10"/>
    <rect x="60" y="40" width="10" height="10"/>
    <rect x="80" y="40" width="10" height="10"/>
    
    <rect x="10" y="50" width="10" height="10"/>
    <rect x="30" y="50" width="10" height="10"/>
    <rect x="40" y="50" width="10" height="10"/>
    <rect x="60" y="50" width="10" height="10"/>
    <rect x="80" y="50" width="10" height="10"/>
    
    <rect x="10" y="60" width="10" height="10"/>
    <rect x="30" y="60" width="10" height="10"/>
    <rect x="50" y="60" width="10" height="10"/>
    <rect x="80" y="60" width="10" height="10"/>
    
    <rect x="10" y="70" width="10" height="10"/>
    <rect x="30" y="70" width="10" height="10"/>
    <rect x="50" y="70" width="10" height="10"/>
    <rect x="80" y="70" width="10" height="10"/>
    
    <rect x="10" y="80" width="10" height="10"/>
    <rect x="20" y="80" width="10" height="10"/>
    <rect x="30" y="80" width="10" height="10"/>
    <rect x="40" y="80" width="10" height="10"/>
    <rect x="50" y="80" width="10" height="10"/>
    <rect x="60" y="80" width="10" height="10"/>
    <rect x="70" y="80" width="10" height="10"/>
    <rect x="80" y="80" width="10" height="10"/>
    
    <!-- 定位点左上 -->
    <rect x="20" y="20" width="10" height="10"/>
    <rect x="30" y="20" width="10" height="10"/>
    <rect x="40" y="20" width="10" height="10"/>
    <rect x="20" y="30" width="10" height="10"/>
    <rect x="20" y="40" width="10" height="10"/>
    
    <!-- 定位点右上 -->
    <rect x="50" y="20" width="10" height="10"/>
    <rect x="60" y="20" width="10" height="10"/>
    <rect x="70" y="20" width="10" height="10"/>
    <rect x="70" y="30" width="10" height="10"/>
    <rect x="70" y="40" width="10" height="10"/>
    
    <!-- Logo中心 -->
    <rect x="40" y="40" width="10" height="10"/>
    <rect x="50" y="40" width="10" height="10"/>
    <rect x="40" y="60" width="10" height="10"/>
    <rect x="40" y="70" width="10" height="10"/>
    <rect x="60" y="70" width="10" height="10"/>
    <rect x="70" y="50" width="10" height="10"/>
    <rect x="70" y="60" width="10" height="10"/>
    <rect x="70" y="70" width="10" height="10"/>
  </g>
  
  <!-- Logo中心圆形 -->
  <circle cx="50" cy="50" r="15" fill="#ffffff" stroke="#0077cc" stroke-width="3"/>
  <text x="50" y="55" font-family="Arial, sans-serif" font-size="16" font-weight="bold" text-anchor="middle" fill="#0077cc">DWK</text>
</svg> 